HIERARCHY
ROOT Hips
{
	OFFSET 0.000000 0.000000 0.000000 
	CHANNELS 6 Xposition Yposition Zposition Zrotation Yrotation Xrotation
	JOINT LeftUpLeg
	{
		OFFSET 1.363060 -1.794630 0.839290 
		CHANNELS 3 Zrotation Yrotation Xrotation
		JOINT LeftLeg
		{
			OFFSET 2.448110 -6.726130 0.000000 
			CHANNELS 3 Zrotation Yrotation Xrotation
			JOINT LeftFoot
			{
				OFFSET 2.562200 -7.039590 0.000000 
				CHANNELS 3 Zrotation Yrotation Xrotation
				JOINT LeftToeBase
				{
					OFFSET 0.157640 -0.433110 2.322550 
					CHANNELS 3 Zrotation Yrotation Xrotation
					End Site
					{
						OFFSET 0.000000 0.000000 0.000000 
					}
				}
			}
		}
	}
	JOINT RightUpLeg
	{
		OFFSET -1.305520 -1.794630 0.839290 
		CHANNELS 3 Zrotation Yrotation Xrotation
		JOINT RightLeg
		{
			OFFSET -2.542530 -6.985550 0.000000 
			CHANNELS 3 Zrotation Yrotation Xrotation
			JOINT RightFoot
			{
				OFFSET -2.568260 -7.056230 0.000000 
				CHANNELS 3 Zrotation Yrotation Xrotation
				JOINT RightToeBase
				{
					OFFSET -0.164730 -0.452590 2.363150 
					CHANNELS 3 Zrotation Yrotation Xrotation
					End Site
					{
						OFFSET 0.000000 0.000000 0.000000 
					}
				}
			}
		}
	}
	JOINT Spine
	{
		OFFSET 0.028270 2.035590 -0.193380 
		CHANNELS 3 Zrotation Yrotation Xrotation
		JOINT Spine1
		{
			OFFSET 0.056720 2.048850 -0.042750 
			CHANNELS 3 Zrotation Yrotation Xrotation
			JOINT Neck1
			{
				OFFSET -0.054170 1.746240 0.172020 
				CHANNELS 3 Zrotation Yrotation Xrotation
				JOINT Head
				{
					OFFSET 0.104070 1.761360 -0.123970 
					CHANNELS 3 Zrotation Yrotation Xrotation
					End Site
					{
						OFFSET 0.000000 0.000000 0.000000 
					}
				}
			}
			JOINT LeftArm
			{
				OFFSET 3.362410 1.200890 -0.311210 
				CHANNELS 3 Zrotation Yrotation Xrotation
				JOINT LeftForeArm
				{
					OFFSET 4.983000 -0.000000 -0.000000 
					CHANNELS 3 Zrotation Yrotation Xrotation
					JOINT LeftHand
					{
						OFFSET 3.483560 -0.000000 -0.000000 
						CHANNELS 3 Zrotation Yrotation Xrotation
						JOINT LeftHandIndex1
						{
							OFFSET 0.715260 -0.000000 -0.000000 
							CHANNELS 3 Zrotation Yrotation Xrotation
							End Site
							{
								OFFSET 0.000000 0.000000 0.000000 
							}
						}
					}
				}
			}
			JOINT RightArm
			{
				OFFSET -3.136600 1.374050 -0.404650 
				CHANNELS 3 Zrotation Yrotation Xrotation
				JOINT RightForeArm
				{
					OFFSET -5.241900 -0.000000 -0.000000 
					CHANNELS 3 Zrotation Yrotation Xrotation
					JOINT RightHand
					{
						OFFSET -3.444170 -0.000000 -0.000000 
						CHANNELS 3 Zrotation Yrotation Xrotation
						JOINT RightHandIndex1
						{
							OFFSET -0.622530 -0.000000 -0.000000 
							CHANNELS 3 Zrotation Yrotation Xrotation
							End Site
							{
								OFFSET 0.000000 0.000000 0.000000 
							}
						}
					}
				}
			}
		}
	}
}
MOTION
Frames: 17
Frame Time: 0.041667
5.927686 17.973123 -23.596907 -4.246974 79.650140 1.762939 -1.018084 -3.477674 6.323122 -1.255304 2.221825 3.088087 1.869454 -2.083889 -11.316543 6.522100 14.915900 47.042900 8.676912 10.900750 7.213087 1.549817 -1.475107 0.841229 3.486810 -25.790700 -25.359959 -0.000500 -0.139100 0.382100 1.060033 -7.137346 -4.429251 -5.934856 -3.277121 3.128986 12.778646 -32.358671 4.898918 4.710300 -16.330000 1.509600 -77.526310 11.900269 22.033333 16.575457 -23.278323 -3.624339 0.455157 0.128634 -14.829036 -7.125000 0.000000 0.000000 83.408018 2.596817 35.267096 -14.791915 19.056717 -4.319310 2.124774 2.325493 -0.774422 7.125000 0.000000 0.000000 
5.937415 17.980344 -23.591291 -5.379515 79.726395 0.861201 -0.663654 -2.999691 5.822744 -1.232797 2.244963 3.181060 1.751320 -1.793179 -10.696831 6.345300 14.754900 46.352500 8.875932 10.425141 6.894993 1.541412 -1.440079 0.752952 3.707896 -26.440812 -24.480110 -0.020500 0.923500 -2.538300 1.891590 -7.304350 -4.485515 -3.250408 -3.341836 3.614672 12.455103 -32.538211 4.638336 4.660300 -16.396100 1.527000 -79.787825 10.782865 20.449398 16.274943 -22.977880 -3.521993 0.469896 0.137077 -13.828604 -7.125000 0.000000 0.000000 81.149256 2.182350 34.770003 -15.010880 19.256331 -4.297117 2.028911 2.331542 -0.992050 7.125000 0.000000 0.000000 
5.941527 17.979441 -23.592093 -4.808408 79.645300 1.408787 -0.787882 -2.823118 5.783712 -1.225596 2.255045 3.178542 1.784634 -1.937332 -10.563706 6.397500 14.802800 46.556800 8.691271 10.438107 6.942282 1.533326 -1.433203 0.794040 3.493793 -25.681045 -24.892411 -0.000500 -0.141800 0.389700 2.637231 -7.368966 -4.532569 -0.575488 -3.384164 3.943237 12.047612 -32.784006 4.088077 4.613600 -16.488300 1.410300 -81.849797 9.908745 19.568829 16.163952 -22.907424 -3.492309 0.479879 0.142400 -13.076226 -7.125000 0.000000 0.000000 78.886581 1.793211 34.186620 -15.197244 19.443880 -4.312633 1.928975 2.379561 -1.141721 7.125000 0.000000 0.000000 
5.940725 17.975129 -23.595904 -4.069291 79.378475 1.952105 -1.009014 -2.865663 6.021775 -1.233081 2.243714 3.079879 1.823456 -2.048473 -10.805842 6.489500 14.886500 46.916000 8.508948 10.060610 6.936251 1.515142 -1.411141 0.774619 3.728050 -26.320366 -23.733326 -0.045800 1.381500 -3.799100 4.015892 -7.310978 -4.625738 4.387108 -3.392044 4.403323 11.541516 -33.138249 2.902873 4.641700 -16.600700 1.191900 -85.783812 8.491210 18.548076 16.016960 -22.826925 -3.448012 0.481660 0.151276 -11.839302 -7.125000 0.000000 0.000000 74.418687 1.241896 35.299567 -15.616194 19.938814 -4.479240 1.845434 2.504146 -1.829490 7.125000 0.000000 0.000000 
5.936713 17.971618 -23.599314 -1.623772 79.195000 4.220080 -1.608494 -3.068074 6.348564 -1.269878 2.214780 2.957526 1.821592 -1.986713 -11.317137 6.489900 14.886800 46.917400 7.891104 10.062638 6.991461 1.502155 -1.423080 0.823995 3.730961 -26.262253 -23.495203 -0.061100 1.595100 -4.387900 3.942381 -7.343212 -4.668175 4.524914 -3.422637 4.218461 11.663853 -32.876747 2.960667 4.732200 -16.482200 1.196800 -85.698944 8.636398 18.364523 16.242931 -23.106431 -3.535278 0.473438 0.147253 -11.914957 -7.125000 0.000000 0.000000 74.359496 0.836100 35.320560 -15.483840 19.777382 -4.386602 1.773037 2.512531 -2.049661 7.125000 0.000000 0.000000 
5.933604 17.971518 -23.601120 -0.478425 79.120684 5.304402 -1.887110 -3.155650 6.438256 -1.294381 2.211623 2.930929 1.764632 -1.769551 -11.568624 6.398800 14.803900 46.561800 7.582613 10.143028 7.005490 1.499567 -1.451664 0.922783 3.646198 -25.966544 -23.730626 -0.046800 1.396600 -3.840800 3.917539 -7.394141 -4.700707 4.600110 -3.459441 4.109425 11.401802 -33.084924 2.903336 4.659000 -16.576600 1.130600 -85.499827 8.709514 18.523372 16.460313 -23.379151 -3.622924 0.475425 0.141759 -12.051413 -7.125000 0.000000 0.000000 74.547819 -0.009690 35.346367 -15.791920 20.059319 -4.340154 1.705702 2.384481 -1.863593 7.125000 0.000000 0.000000 
5.938819 17.982651 -23.594701 -8.448100 79.438503 -2.343594 -0.078219 -2.748000 5.833277 -1.202694 2.244977 3.147144 1.693911 -1.634274 -10.517837 6.315000 14.726800 46.233200 9.619472 10.251865 6.982870 1.540099 -1.464651 0.902364 3.613426 -26.052239 -24.415495 -0.031700 1.149900 -3.161200 4.195356 -7.609103 -4.716566 4.196906 -3.501805 4.115482 11.110100 -33.335335 3.055738 4.527900 -16.693700 1.157600 -85.273789 8.657171 18.797414 16.659641 -23.607647 -3.701076 0.478084 0.140711 -12.277073 -7.125000 0.000000 0.000000 74.611977 -0.158968 35.260454 -15.516369 19.783260 -4.278524 1.711100 2.424119 -1.850499 7.125000 0.000000 0.000000 
5.940725 17.984055 -23.594199 -8.912537 79.442012 -2.818748 0.005307 -2.739823 5.863550 -1.192071 2.238464 3.134395 1.728859 -1.764212 -10.416842 6.332900 14.743400 46.303700 9.741420 10.167669 6.995260 1.539188 -1.455806 0.871381 3.644715 -26.145736 -24.274020 -0.048800 1.426000 -3.921800 4.238856 -7.715635 -4.725697 4.186860 -3.548720 4.097246 11.214031 -33.171408 3.278721 4.555600 -16.621200 1.267200 -85.229655 8.576224 18.560451 16.816779 -23.795777 -3.765436 0.476325 0.140651 -12.343333 -7.125000 0.000000 0.000000 74.587604 -0.774894 35.223651 -15.929653 20.280681 -4.441890 1.655998 2.457441 -1.776527 7.125000 0.000000 0.000000 
5.940625 17.983955 -23.594099 -8.995341 79.423113 -2.882147 0.007025 -2.837591 5.887421 -1.190270 2.238764 3.129472 1.778232 -1.912810 -10.467223 6.390000 14.795900 46.527500 9.765117 10.243005 6.994851 1.541666 -1.444960 0.841498 3.665061 -26.230959 -24.288903 -0.063800 1.629900 -4.483800 4.267924 -7.813859 -4.752362 4.201862 -3.595711 4.056434 11.228615 -33.049141 3.284341 4.584000 -16.562300 1.267400 -85.198962 8.538258 18.151526 16.962995 -23.977593 -3.828635 0.482200 0.134835 -12.201556 -7.125000 0.000000 0.000000 74.441566 -1.046953 35.619621 -15.898634 20.272196 -4.450942 1.670143 2.472433 -2.221214 7.125000 0.000000 0.000000 
5.939822 17.984155 -23.593698 -8.815432 79.397854 -2.701011 -0.036692 -2.893194 5.908521 -1.181710 2.247441 3.140243 1.886717 -2.258071 -10.500201 6.539200 14.931200 47.109000 9.729228 10.377829 7.038311 1.544527 -1.436038 0.824784 3.623340 -26.117930 -24.507479 -0.040900 1.305400 -3.589500 4.252846 -7.828598 -4.766515 4.173194 -3.604443 4.007820 11.182458 -33.065109 3.311361 4.569600 -16.570600 1.257200 -85.018911 8.464079 17.971545 17.075457 -24.120200 -3.879735 0.492663 0.128561 -12.021490 -7.125000 0.000000 0.000000 74.511376 -1.166047 35.549667 -15.609155 19.970207 -4.383952 1.742680 2.471627 -2.592209 7.125000 0.000000 0.000000 
5.938719 17.985359 -23.593497 -8.215648 79.394155 -2.120256 -0.158631 -2.914516 5.917640 -1.174814 2.253506 3.144408 1.984009 -2.588470 -10.456021 6.663600 15.042000 47.590400 9.584271 10.409111 7.055384 1.543336 -1.429354 0.816826 3.603839 -26.054185 -24.579132 -0.022300 0.963800 -2.649300 4.283726 -7.937848 -4.807298 4.308910 -3.659903 3.927062 11.240687 -32.970689 3.335555 4.605200 -16.526900 1.285200 -85.083884 8.363076 17.592320 17.154604 -24.216467 -3.915182 0.496854 0.127451 -11.888853 -7.125000 0.000000 0.000000 74.511620 -1.262385 35.050412 -15.339004 19.678430 -4.317512 1.790207 2.473037 -2.287426 7.125000 0.000000 0.000000 
5.938819 17.985760 -23.591692 -7.809559 79.386613 -1.723496 -0.252302 -3.036670 5.948732 -1.189458 2.253826 3.140922 1.950844 -2.454539 -10.603559 6.602100 14.987400 47.352800 9.499148 10.433468 7.049257 1.544904 -1.419897 0.797723 3.654229 -26.237599 -24.523247 -0.029300 1.105400 -3.039000 4.456049 -8.252700 -4.913500 4.764627 -3.811783 3.799897 11.222408 -32.722504 3.363220 4.667400 -16.403300 1.346600 -85.676361 8.392001 16.725861 17.279271 -24.371863 -3.970780 0.498693 0.128831 -11.771662 -7.125000 0.000000 0.000000 73.972234 -1.346253 35.185167 -15.124955 19.447750 -4.255610 1.747767 2.525135 -2.282573 7.125000 0.000000 0.000000 
5.940725 17.985560 -23.589285 -8.080443 79.358824 -1.952197 -0.196704 -3.004825 5.944023 -1.192566 2.251846 3.136107 1.904185 -2.294487 -10.638310 6.531500 14.924400 47.079500 9.585789 10.514142 7.073344 1.548406 -1.422304 0.794746 3.630230 -26.182357 -24.665506 -0.025500 1.030500 -2.832700 4.182351 -7.772199 -4.771450 4.103186 -3.586824 3.975908 11.161830 -33.246936 3.107943 4.552500 -16.657600 1.131600 -84.392408 7.982309 18.061549 17.370859 -24.468627 -4.006874 0.497880 0.132439 -12.104143 -7.125000 0.000000 0.000000 74.862057 -1.337272 34.036740 -14.703389 18.962804 -4.105362 1.797714 2.483849 -2.008454 7.125000 0.000000 0.000000 
5.943734 17.985760 -23.589586 -8.236442 79.318621 -2.126870 -0.166263 -2.953938 5.970197 -1.197216 2.236988 3.104996 1.846848 -2.102774 -10.682942 6.467900 14.866900 46.831900 9.628305 10.629780 7.123376 1.548790 -1.423663 0.817492 3.506158 -25.772531 -24.994936 -0.004400 0.428500 -1.177500 4.429529 -8.148664 -4.889956 4.678728 -3.762914 3.842555 11.149454 -32.946581 3.161639 4.632600 -16.508500 1.224400 -85.100802 8.138810 17.146877 17.549386 -24.697403 -4.086932 0.501204 0.128190 -11.930620 -7.125000 0.000000 0.000000 73.955928 -1.304346 34.859240 -14.421676 18.668408 -4.040454 1.779937 2.547560 -2.517062 7.125000 0.000000 0.000000 
5.948047 17.988568 -23.573237 -4.411539 79.239882 1.831182 -0.909979 -3.222752 5.957090 -1.252199 2.235630 3.052577 1.819167 -1.939916 -11.204613 6.337600 14.747700 46.322000 8.758622 11.212653 7.103999 1.555042 -1.397835 0.779552 3.514656 -25.899818 -25.415977 -0.001100 0.217400 -0.597300 4.236197 -7.917310 -4.866253 4.785263 -3.689358 4.099093 11.254654 -33.212928 2.928636 4.645000 -16.640800 1.099100 -84.496853 7.924956 17.647772 17.652470 -24.842082 -4.136008 0.507172 0.119956 -11.991713 -7.125000 0.000000 0.000000 74.315813 -1.345999 33.721810 -14.145891 18.370523 -3.991221 1.789875 2.577663 -2.000099 7.125000 0.000000 0.000000 
5.953262 17.990574 -23.568924 -2.523403 79.182600 3.803107 -1.327607 -3.495221 5.991372 -1.278684 2.232789 3.008717 1.880799 -2.080412 -11.568209 6.290200 14.703800 46.135800 8.269484 11.259840 6.977778 1.549298 -1.392409 0.769268 3.602968 -26.164340 -25.151680 -0.009900 0.642000 -1.764300 4.180140 -7.869509 -4.870283 4.887556 -3.686693 4.240392 11.122598 -33.341519 2.906820 4.581800 -16.697300 1.064000 -84.327555 7.832712 17.887714 17.874098 -25.111217 -4.230038 0.502118 0.116132 -12.239934 -7.125000 0.000000 0.000000 74.407523 -1.517720 33.209121 -13.918803 18.118269 -3.925166 1.826488 2.560358 -1.440012 7.125000 0.000000 0.000000 
5.956773 17.990173 -23.571933 -3.907691 79.180255 2.392833 -1.086738 -3.548309 6.075623 -1.269293 2.223182 2.990282 1.888570 -2.092908 -11.591792 6.329600 14.740400 46.290800 8.621698 11.080114 6.982359 1.548068 -1.409819 0.794376 3.640538 -26.252308 -24.886026 -0.024600 1.012400 -2.782900 4.230891 -7.866052 -4.859192 4.829747 -3.671952 4.220161 11.163817 -33.272465 3.001529 4.573400 -16.664700 1.119400 -84.211693 7.824090 18.129997 18.122899 -25.404623 -4.337157 0.500998 0.115082 -12.255052 -7.125000 0.000000 0.000000 74.452615 -1.657211 32.511057 -13.734653 17.894996 -3.838256 1.837658 2.523753 -1.001329 7.125000 0.000000 0.000000 
